<svg width="195" height="173" viewBox="0 0 195 173" fill="none" xmlns="http://www.w3.org/2000/svg">
<path d="M107.22 13.6297L181.977 89.2747H32.4638L107.22 13.6297Z" fill="#EFEFEF"/>
<path d="M107.22 164.465L32.4638 88.8203L181.977 88.8203L107.22 164.465Z" fill="#EFEFEF"/>
<path d="M69.531 38.5275C66.567 40.0897 65.414 43.683 66.9447 46.5871C68.4754 49.4913 72.0914 50.5709 75.0554 49.0086L80.7828 45.9899L95.8594 55.9006L62.5648 73.4494L52.0851 68.3703C50.3571 67.5232 48.3045 67.5727 46.5885 68.4772L34.1085 75.055C31.1446 76.6173 29.9915 80.2105 31.5222 83.1147C33.0529 86.0189 36.6689 87.0985 39.6329 85.5362L49.3717 80.4032L57.8301 84.5108L58.0135 99.2301C55.4972 99.8589 53.0076 100.808 50.6231 102.065C34.8671 110.37 28.6922 129.612 36.8292 145.05C44.9661 160.488 64.3305 166.269 80.0864 157.965C94.6389 150.295 101.001 133.297 95.4989 118.591L106.419 112.836C108.313 111.837 109.533 109.938 109.674 107.827L112.056 66.5323L121.508 72.7395C117.794 81.2538 117.802 91.2105 122.406 99.9448C130.543 115.383 149.907 121.164 165.663 112.86C181.419 104.555 187.594 85.3126 179.457 69.8746C171.32 54.4367 151.956 48.6553 136.2 56.9599C133.191 58.5456 130.536 60.5312 128.266 62.8158L85.5936 34.7488C83.1487 33.1357 80.0053 33.0067 77.3756 34.3928L69.531 38.5275ZM133.472 80.6355L147.541 89.8775C150.292 91.6923 154.04 90.9163 155.9 88.178C157.76 85.4398 157.061 81.735 154.322 79.942L140.252 70.7C140.986 70.1462 141.798 69.6343 142.645 69.188C151.514 64.513 162.396 67.7618 166.977 76.4525C171.558 85.1432 168.088 95.9566 159.218 100.632C150.348 105.307 139.466 102.058 134.886 93.367C132.745 89.3055 132.36 84.793 133.472 80.6355ZM68.355 132.898L82.8407 125.263C84.9082 133.13 81.2629 141.72 73.6413 145.737C64.7716 150.412 53.8897 147.163 49.3091 138.472C44.7285 129.782 48.1985 118.968 57.0682 114.293C57.447 114.094 57.8374 113.916 58.2277 113.738L58.4166 127.171C58.494 132.18 63.8648 135.293 68.3665 132.92L68.355 132.898ZM70.3409 118.458L69.981 90.3833L97.8744 103.918L97.8636 103.952L70.3409 118.458ZM75.8 79.8664L99.9798 67.1218L98.5894 90.9575L75.7777 79.8782L75.8 79.8664Z" fill="#22333B"/>
</svg>
